<?xml version="1.0" encoding="UTF-8" standalone="no"?><svg xmlns:dc="http://purl.org/dc/elements/1.1/" xmlns:cc="http://creativecommons.org/ns#" xmlns:rdf="http://www.w3.org/1999/02/22-rdf-syntax-ns#" xmlns:svg="http://www.w3.org/2000/svg" xmlns="http://www.w3.org/2000/svg" version="1.1" height="25" width="85.000069" xml:space="preserve" viewBox="0 0 85.000065 25.000001" y="0px" x="0px"><g transform="translate(99.06932,-2.1722288)"><g><rect style="fill:none" y="0" x="0" height="54.599998" width="20.6" class="st0"/><rect style="fill:none" height="54.599998" width="20.6" class="st0" y="0" x="104.2"/></g><rect style="fill:none" height="24.6" width="8" class="st0" y="15.2" x="20.6"/><rect style="fill:none" height="24.6" width="8" class="st0" y="15.2" x="96.199997"/></g><g transform="translate(119.60387,13.027771)" style="display:inline"><g transform="matrix(1.0163716,0,0,1.0162602,-119.60387,-13.027771)" style="fill:#401ebc;fill-opacity:1"><line style="fill:#401ebc;fill-opacity:1;stroke:#401ebc;stroke-width:1.13090003;stroke-opacity:1" y2="-1.9073487e-007" x2="0.56545037" y1="24.599998" x1="0.56545037" class="st4"/><line style="fill:#401ebc;fill-opacity:1;stroke:#401ebc;stroke-width:1.13090003;stroke-opacity:1" y2="-1.9073487e-007" x2="83.065445" y1="24.599998" x1="83.065445" class="st4"/><g aria-label="biboard" transform="translate(5.8750314,23.798176)" style="fill:#401ebc;fill-opacity:1"><path d="m 11.616979,-11.74045 c 0,-1.771631 -0.342896,-3.124167 -1.238237,-4.038558 -0.6857928,-0.685793 -1.6001833,-1.028689 -2.6860219,-1.028689 -0.9905897,0 -2.0954781,0.342896 -3.0860678,0.666743 v -4.457653 H 2.1301782 v 13.6777567 h 1.7906813 l 0.057149,-0.3238466 c 0.857241,0.380996 1.8478307,0.5905438 2.8003207,0.5905438 1.3334861,0 2.3621753,-0.285747 3.1813168,-0.9334402 1.00964,-0.8000916 1.657333,-2.2669263 1.657333,-4.1528567 z m -2.5526733,0.0762 c 0,2.1716776 -0.9334402,3.1241676 -2.6860219,3.1241676 -0.571494,0 -1.2001374,-0.1333486 -1.7716315,-0.380996 v -5.3148946 c 0.7619921,-0.285747 1.5620837,-0.514344 2.2288267,-0.514344 1.4096853,0 2.2288267,0.93344 2.2288267,3.086067 z" style="font-style:normal;font-variant:normal;font-weight:bold;font-stretch:normal;font-size:19.04980087px;font-family:'Allumi Ptf';-inkscape-font-specification:'Allumi Ptf Bold';fill:#401ebc;fill-opacity:1"/><path d="M 16.401158,-6.9208503 V -16.541 h -2.476474 v 9.6201497 h 2.419325 z m 0.09525,-11.4489307 v -2.228826 h -2.666972 v 2.228826 z" style="font-style:normal;font-variant:normal;font-weight:bold;font-stretch:normal;font-size:19.04980087px;font-family:'Allumi Ptf';-inkscape-font-specification:'Allumi Ptf Bold';fill:#401ebc;fill-opacity:1"/><path d="m 29.178514,-11.74045 c 0,-1.771631 -0.342896,-3.124167 -1.238237,-4.038558 -0.685793,-0.685793 -1.600183,-1.028689 -2.686022,-1.028689 -0.99059,0 -2.095478,0.342896 -3.086068,0.666743 v -4.457653 h -2.476474 v 13.6777567 h 1.790681 l 0.05715,-0.3238466 c 0.857241,0.380996 1.84783,0.5905438 2.800321,0.5905438 1.333486,0 2.362175,-0.285747 3.181316,-0.9334402 1.00964,-0.8000916 1.657333,-2.2669263 1.657333,-4.1528567 z m -2.552673,0.0762 c 0,2.1716776 -0.933441,3.1241676 -2.686022,3.1241676 -0.571494,0 -1.200138,-0.1333486 -1.771632,-0.380996 v -5.3148946 c 0.761992,-0.285747 1.562084,-0.514344 2.228827,-0.514344 1.409685,0 2.228827,0.93344 2.228827,3.086067 z" style="font-style:normal;font-variant:normal;font-weight:bold;font-stretch:normal;font-size:19.04980087px;font-family:'Allumi Ptf';-inkscape-font-specification:'Allumi Ptf Bold';fill:#401ebc;fill-opacity:1"/><path d="m 35.858744,-8.5210336 c -1.695432,0 -2.400275,-1.1048884 -2.400275,-3.2575154 0,-2.190728 0.628643,-3.143218 2.400275,-3.143218 1.695432,0 2.400275,1.085839 2.400275,3.238467 0,2.1907266 -0.628644,3.1622664 -2.400275,3.1622664 z m 0,1.8668805 c 1.333486,0 2.533623,-0.2285976 3.467064,-1.0286892 1.028689,-0.8381913 1.466834,-2.2859761 1.466834,-4.0576077 0,-1.771631 -0.457195,-3.200366 -1.466834,-4.038558 -0.95249,-0.800091 -2.152628,-1.028689 -3.467064,-1.028689 -1.333486,0 -2.533624,0.228598 -3.467064,1.028689 -1.028689,0.838192 -1.466835,2.285976 -1.466835,4.057608 0,1.7716314 0.438146,3.2003664 1.466835,4.0385577 0.95249,0.8000916 2.152628,1.0286892 3.467064,1.0286892 z" style="font-style:normal;font-variant:normal;font-weight:bold;font-stretch:normal;font-size:19.04980087px;font-family:'Allumi Ptf';-inkscape-font-specification:'Allumi Ptf Bold';fill:#401ebc;fill-opacity:1"/><path d="M 51.437612,-6.9208503 V -12.69294 c 0,-1.352536 -0.114299,-2.419325 -1.028689,-3.200366 -0.876291,-0.761993 -2.228827,-0.914391 -3.619463,-0.914391 -1.028689,0 -2.076428,0.0762 -3.105117,0.171448 v 1.828781 c 0.876291,-0.09525 1.809731,-0.152398 2.647922,-0.152398 2.019279,0 2.628873,0.571494 2.628873,2.019279 v 0.323846 c -0.857241,-0.0762 -1.809731,-0.133348 -2.476474,-0.133348 -1.02869,0 -1.790682,0.0762 -2.533624,0.476245 -0.97154,0.514344 -1.390635,1.504934 -1.390635,2.552673 0,1.0096394 0.304796,1.7144821 0.93344,2.2859761 0.609593,0.571494 1.447785,0.7810418 2.266926,0.7810418 1.219187,0 2.266926,-0.3619462 3.524213,-0.7810418 l 0.05715,0.5143446 z m -2.476474,-1.9621295 c -0.819142,0.2476474 -1.676383,0.4762451 -2.438375,0.4762451 -1.009639,0 -1.562083,-0.5714941 -1.562083,-1.3906355 0,-0.8572408 0.514344,-1.3525358 1.943079,-1.3525358 0.571494,0 1.409685,0.0381 2.057379,0.114299 z" style="font-style:normal;font-variant:normal;font-weight:bold;font-stretch:normal;font-size:19.04980087px;font-family:'Allumi Ptf';-inkscape-font-specification:'Allumi Ptf Bold';fill:#401ebc;fill-opacity:1"/><path d="m 57.068017,-6.9208503 v -7.1817747 c 1.123938,-0.400046 1.92403,-0.552444 2.83842,-0.552444 0.152399,0 0.419096,0 0.628644,0 v -2.133578 c -0.09525,-0.01905 -0.209548,-0.01905 -0.266697,-0.01905 -1.257287,0 -2.152628,0.342896 -3.505164,0.876291 L 56.68702,-16.541 h -2.095478 v 9.6201497 z" style="font-style:normal;font-variant:normal;font-weight:bold;font-stretch:normal;font-size:19.04980087px;font-family:'Allumi Ptf';-inkscape-font-specification:'Allumi Ptf Bold';fill:#401ebc;fill-opacity:1"/><path d="M 70.529979,-6.9208503 V -20.598607 h -2.476474 v 4.152856 c -0.666743,-0.209548 -1.447785,-0.361946 -2.171677,-0.361946 -1.333487,0 -2.362176,0.285747 -3.181317,0.93344 -0.99059,0.800092 -1.638283,2.266927 -1.638283,4.152857 0,1.7716314 0.323847,3.1241672 1.219187,4.0385577 0.685793,0.6857928 1.600183,1.0286892 2.686022,1.0286892 1.123938,0 2.324076,-0.4190956 3.409914,-0.7810418 l 0.05715,0.5143446 z m -4.724351,-1.7906813 c -1.390635,0 -2.209777,-0.9334402 -2.209777,-3.0860674 0,-2.171678 0.933441,-3.105118 2.686022,-3.105118 0.571494,0 1.219188,0.114299 1.771632,0.361946 v 5.3148948 c -0.742942,0.2666972 -1.562084,0.5143446 -2.247877,0.5143446 z" style="font-style:normal;font-variant:normal;font-weight:bold;font-stretch:normal;font-size:19.04980087px;font-family:'Allumi Ptf';-inkscape-font-specification:'Allumi Ptf Bold';fill:#401ebc;fill-opacity:1"/></g></g></g></svg>